PathFileType	4	(X/Y/Z)	C:/Users/beibeiliu/ov580/test_trc/User1\sequence.33_training_dense_left.trc
DataRate	CameraRate	NumFrames	NumMarkers	Units	OrigDataRate	OrigDataStartFrame	OrigNumFrames
120	120	19	19	mm	120	98	260
Frame#	Time	ThumbCMC			ThumbMCP			ThumbIP			ThumbTip			IndexMCP			IndexPIP			IndexTip			MiddleMCP			MiddlePIP			MiddleTip			RingMCP			RingPIP			RingTip			PinkyMCP			PinkyPIP			PinkyTip			BackHand1			BackHand2			BackHand3	
		X0	Y0	Z0	X1	Y1	Z1	X2	Y2	Z2	X3	Y3	Z3	X4	Y4	Z4	X5	Y5	Z5	X6	Y6	Z6	X7	Y7	Z7	X8	Y8	Z8	X9	Y9	Z9	X10	Y10	Z10	X11	Y11	Z11	X12	Y12	Z12	X13	Y13	Z13	X14	Y14	Z14	X15	Y15	Z15	X16	Y16	Z16	X17	Y17	Z17	X18	Y18	Z18	
97	0.808333	-178.689	-4.98798	41.9115	-159.097	14.9742	17.7471	-144.509	19.0623	-5.20893	-127.768	25.8814	-27.6752	-153.073	-24.9959	-33.5451	-124.376	-6.35522	-47.3353	-102.245	15.3187	-36.535	-128.208	-44.6529	-28.2411	-104.104	-19.2768	-40.0125	-88.013	8.05389	-25.9537	-114.413	-56.9257	-17.9586	-89.3115	-40.1635	-29.2395	-74.146	-13.8159	-24.2863	-104.274	-72.0783	8.84113	-86.0529	-69.6284	-8.53023	-67.8922	-64.592	-26.654	-154.151	-68.4691	31.5824	-163.544	-66.9279	67.7772	-181.634	-46.6217	34.9229	
98	0.816667	-182.398	-1.9244	41.5775	-160.071	21.2008	21.0783	-142.427	25.5813	-5.03732	-125.963	30.2365	-19.0448	-147.263	-19.5963	-32.0645	-120.41	0.465081	-42.5386	-99.7828	19.4514	-31.7728	-125.829	-37.0933	-29.0203	-104.045	-14.5016	-37.1191	-85.3216	15.0819	-16.0779	-110.528	-51.9927	-16.9347	-87.2084	-35.6238	-26.3627	-72.8887	-9.70127	-22.1583	-103.046	-67.3844	8.66115	-84.5799	-64.4657	-6.82233	-64.2459	-61.2443	-24.9253	-151.823	-67.0735	28.8555	-164.82	-68.5123	64.1148	-184.409	-42.7761	35.6441	
99	0.825	-179.843	-3.70491	39.0758	-158.201	21.2302	21.5856	-141.952	31.7637	2.64387	-123.535	39.2937	-10.7606	-141.721	-12.1247	-32.5531	-118.717	4.20081	-39.6084	-96.2351	25.4137	-24.8523	-123.273	-31.9722	-27.7826	-98.6466	-4.94264	-31.9532	-84.064	21.0802	-8.19897	-106.368	-47.0005	-16.8117	-85.9699	-27.7194	-26.3276	-70.4799	-2.83303	-20.0188	-104.599	-63.9509	9.14128	-84.1409	-61.9762	-3.24603	-65.4973	-57.0268	-19.9092	-151.882	-67.5196	28.0527	-167.025	-68.0976	57.12	-184.424	-45.4376	32.9262	
100	0.833333	-181.282	-1.54603	44.9075	-157.761	25.841	25.6206	-140.221	35.3472	8.69384	-121.691	46.2911	-4.57679	-141.332	-6.09453	-29.7596	-115.645	9.61563	-34.4981	-91.8856	29.6649	-16.456	-117.484	-24.2137	-28.3025	-95.6767	-1.47417	-28.0632	-83.7053	25.0223	-2.05574	-108.525	-43.331	-15.2452	-85.0564	-23.7094	-23.8018	-65.265	0.962763	-14.8502	-99.4551	-62.6352	11.2002	-83.1508	-58.0786	-2.47705	-62.8519	-54.6307	-17.5104	-151.571	-64.4857	25.2118	-170.86	-65.8243	57.3167	-183.981	-39.2065	29.439	
101	0.841667	-180.569	1.14799	40.1288	-155.644	22.744	30.76	-136.875	33.7734	12.5731	-118.962	46.4959	0.701664	-139.127	-1.75329	-28.3435	-114.434	14.2115	-31.0725	-89.1143	31.7091	-9.55775	-120.109	-22.1158	-24.6074	-91.6847	2.88281	-21.3788	-80.2341	21.6296	4.39265	-107.598	-40.0552	-15.6588	-79.4856	-20.4045	-20.1701	-64.6475	1.19282	-10.3771	-100.405	-61.4851	11.2017	-84.3147	-56.156	-0.623434	-59.8943	-52.8143	-14.5096	-154.149	-63.0269	23.8784	-168.96	-66.8841	51.8452	-184.986	-38.3517	24.1434	
102	0.85	-182.035	2.50974	40.49	-155.536	26.4053	29.2603	-136.236	36.3479	15.5403	-116.428	47.8968	4.2388	-137.194	2.23311	-29.1201	-111.889	17.478	-28.9638	-90.8336	29.9764	-9.0676	-116.836	-20.4468	-24.6394	-94.8219	5.70293	-22.3647	-80.3951	23.4528	6.56546	-106.643	-41.0776	-12.9076	-81.6599	-18.8847	-19.5713	-63.5378	0.778445	-7.17345	-103.995	-59.5404	11.1764	-82.4093	-54.3657	-1.37045	-59.1316	-51.9837	-12.0584	-153.688	-62.5866	22.954	-173.511	-64.3926	49.3647	-184.16	-39.5061	24.4912	
103	0.858333	-181.014	0.555775	41.2876	-156.941	25.2161	31.8994	-136.943	40.1768	17.3004	-116.573	50.7134	6.02467	-136.576	0.236878	-27.6954	-109.704	17.4277	-27.1399	-90.4052	33.7551	-6.65334	-118.008	-19.0569	-23.9735	-91.8636	5.00711	-19.264	-81.0628	23.4767	4.65445	-108.611	-38.3995	-14.5587	-83.0981	-19.7323	-19.5339	-64.0329	2.55125	-5.90069	-103.158	-60.3008	9.90092	-82.7054	-54.6752	-1.23837	-59.291	-50.8819	-13.7778	-154.232	-60.5528	22.3763	-174.267	-64.4935	48.6108	-184.34	-38.3589	24.6035	
104	0.866667	-184.203	1.50432	42.2719	-156.626	25.8326	30.5271	-136.564	41.4065	17.4434	-115.348	52.3965	5.46324	-137.564	1.51823	-27.9739	-108.668	17.5741	-25.6343	-88.525	32.6255	-4.49674	-117.504	-20.4909	-22.7393	-93.126	3.348	-20.1301	-80.4697	26.1609	8.35943	-105.924	-38.8381	-15.2022	-84.6116	-21.7222	-19.8608	-65.965	2.42573	-7.24206	-107.394	-60.1153	12.2687	-85.2834	-56.3082	0.100879	-61.9223	-54.2828	-10.9021	-156.067	-62.6296	21.6902	-177.488	-68.3553	52.3458	-187.931	-34.7667	25.9252	
105	0.875	-183.81	1.03759	38.5969	-158.186	26.5731	32.2364	-136.36	37.2375	16.5038	-120.005	50.4041	10.8375	-140.265	3.31249	-27.8499	-112.422	14.8059	-26.9886	-90.9553	34.5041	-6.3811	-122.168	-17.1915	-25.0844	-95.9679	2.75556	-21.6975	-81.3997	25.5814	4.66817	-112.471	-40.8053	-13.2671	-84.1128	-19.1949	-20.5669	-64.5835	2.46552	-7.72904	-105.351	-61.9716	12.6834	-86.2852	-59.4337	1.50496	-67.0114	-53.1485	-13.0951	-160.437	-58.6888	21.3258	-180.611	-65.107	50.3943	-185.035	-37.2286	22.9499	
106	0.883333	-187.03	5.82145	39.5561	-160.24	30.1066	34.0959	-136.995	39.9388	16.8677	-116.113	51.259	6.53236	-138.832	4.58585	-29.2391	-113.068	18.6846	-28.1562	-93.1441	32.4846	-7.17602	-119.563	-17.2973	-26.0773	-96.7326	2.94423	-20.8455	-80.1297	22.992	7.14463	-113.647	-40.1382	-14.4792	-85.6383	-23.7655	-18.8224	-66.9273	-3.41463	-8.55028	-105.958	-60.5662	7.6825	-86.2498	-61.5759	2.2735	-62.3919	-56.7703	-12.6877	-158.644	-60.0629	20.5112	-181.344	-64.9671	51.1085	-190.881	-33.6192	24.0933	
107	0.891667	-186.12	3.78736	40.3376	-156.963	28.0987	28.6298	-137.89	38.6968	17.0486	-118.058	52.4807	6.314	-143.179	3.99245	-29.578	-113.941	17.6673	-28.8767	-92.84	30.4098	-7.01133	-120.199	-17.5793	-26.4372	-96.0751	4.72137	-20.9839	-82.2982	20.5023	3.9944	-111.732	-40.5098	-15.3002	-85.2749	-26.4191	-19.8003	-68.2399	-1.56302	-11.2526	-108.371	-62.51	7.6613	-90.0536	-60.2599	-0.185931	-67.8381	-56.9893	-14.9758	-159.959	-61.4974	20.2447	-181.857	-64.3301	49.9712	-191.994	-35.2374	21.1781	
108	0.9	-186.246	5.42421	38.3815	-156.093	25.8036	28.5523	-136.845	40.4002	15.2938	-117.769	51.2771	8.07067	-142.004	4.00807	-31.0671	-113.148	17.3092	-30.1011	-92.7782	33.7225	-8.11622	-122.166	-16.7269	-29.6298	-95.1379	3.97125	-21.8708	-83.3287	22.4347	4.94726	-110.362	-40.8419	-18.2522	-86.2009	-27.3907	-21.9069	-68.0341	-3.69244	-11.0054	-109.75	-63.6719	6.94518	-88.4031	-63.8474	-2.71489	-72.4762	-60.9022	-18.4742	-163.625	-58.988	18.0081	-183.794	-63.1241	45.598	-189.62	-33.4809	20.2865	
109	0.908333	-183.138	7.04121	35.0943	-155.598	31.7119	28.2001	-133.204	39.0975	15.1597	-111.595	49.5765	4.10636	-137.784	2.37002	-31.396	-113.363	14.4441	-31.1528	-92.5306	27.7172	-11.8699	-126.142	-20.7286	-28.9947	-95.177	0.296823	-25.6206	-81.2715	14.1085	2.20156	-115.158	-42.8951	-20.3532	-86.3076	-26.813	-24.4305	-68.6539	-10.8552	-13.4249	-111.89	-66.762	4.71463	-93.7433	-63.9582	-8.21685	-72.8255	-65.0248	-20.8603	-165.959	-58.6639	20.4734	-187.696	-61.2351	46.5332	-193.828	-30.8349	21.3588	
110	0.916667	-183.898	12.0191	38.6513	-150.964	33.2891	26.418	-129.059	38.9111	13.0673	-108.345	43.9579	3.22206	-139.842	3.21361	-32.5701	-108.838	12.7263	-30.6648	-89.5091	23.112	-13.4941	-125.688	-20.186	-32.3803	-94.6439	-5.13483	-27.6851	-78.777	13.2993	2.4483	-120.443	-44.0432	-23.2958	-91.1046	-32.495	-28.6515	-68.6823	-16.1678	-16.2123	-119.067	-66.3292	0.837988	-99.7266	-66.8274	-10.5738	-79.8989	-64.2467	-24.9959	-168.669	-57.5994	19.4031	-188.986	-59.3186	46.9928	-195.371	-26.3323	20.7226	
111	0.925	-180.091	14.5277	38.0712	-149.685	31.3395	31.7047	-127.404	39.3867	15.5407	-105.176	46.9379	5.83749	-140.723	6.30529	-33.7727	-110.612	12.0095	-35.0015	-86.1753	19.1597	-12.1292	-129.151	-18.946	-36.2997	-97.7995	-9.66304	-32.3987	-76.5265	4.99476	-3.29511	-123.681	-46.0797	-25.3041	-94.1204	-37.3755	-32.5138	-71.3875	-21.8697	-20.8833	-126.915	-69.3292	0.0778188	-107.846	-71.9519	-14.5607	-82.9406	-69.2666	-32.8206	-171.461	-51.9589	12.5153	-192.182	-52.854	44.4262	-194.314	-23.6145	22.6637	
112	0.933333	-176.653	20.4926	40.9812	-142.346	33.0945	30.08	-121.256	38.2046	15.1838	-98.0694	45.4792	4.86232	-141.821	10.1466	-34.6596	-108.716	16.5734	-36.8226	-83.1294	17.5675	-13.9532	-133.343	-21.2453	-36.3823	-101.806	-7.63532	-38.57	-76.667	1.00497	-13.6389	-128.268	-43.1121	-30.8219	-99.7789	-36.8423	-38.252	-75.1397	-23.8751	-27.5336	-131.072	-67.1779	-9.26337	-116.693	-68.5751	-21.6616	-92.5273	-66.7676	-39.5416	-176.55	-49.1453	14.5961	-193.697	-47.7508	41.0378	-195.248	-16.3573	19.7328	
113	0.941667	-170.051	23.9546	39.6824	-138.428	31.7393	32.8113	-115.042	38.4671	16.2996	-92.6966	43.3943	4.08067	-142.254	13.2795	-34.3107	-107.407	15.0348	-38.5726	-82.0048	14.759	-18.6286	-132.206	-17.428	-40.8374	-103.944	-7.69634	-42.4513	-72.8225	-3.67761	-15.7696	-133.893	-38.5447	-35.885	-106.241	-33.9802	-43.4194	-75.1921	-27.4147	-33.4848	-140.219	-64.7724	-11.9365	-121.465	-70.6237	-29.5689	-100.958	-70.1789	-47.5035	-181.122	-39.7458	8.78953	-197.375	-45.4555	41.0192	-195.658	-8.02138	23.0164	
114	0.95	-167.673	22.9382	44.711	-130.924	29.6634	29.461	-109.513	34.7116	13.4131	-89.5082	36.4355	4.72023	-142.352	18.6932	-35.5835	-109.308	17.4554	-40.0277	-84.5244	9.78521	-25.7268	-139.385	-8.34977	-41.438	-102.693	-7.74246	-43.9446	-77.2857	-4.19537	-27.8895	-138.993	-36.5497	-39.7061	-113.399	-33.0067	-48.345	-83.9138	-28.5972	-42.6754	-148.238	-58.825	-15.3445	-132.521	-64.3017	-33.2744	-114.289	-70.4141	-51.4863	-184.257	-36.5683	12.2804	-197.82	-40.1129	37.7986	-196.205	-4.53463	23.9026	
115	0.958333	-162.164	24.4069	43.4206	-128.749	26.8395	34.1287	-103.857	33.6954	15.239	-84.7231	33.8596	3.88557	-143.044	24.3741	-34.1418	-109.252	20.8438	-41.8501	-85.1569	14.0965	-30.2021	-141.834	-6.66612	-43.6912	-106.043	-7.42734	-47.6541	-79.8069	-5.56284	-32.5539	-148.035	-27.4794	-38.7846	-114.703	-27.8113	-54.2101	-88.156	-26.1391	-48.4446	-152.19	-57.323	-21.4213	-138.864	-64.4035	-35.1157	-123.892	-65.8059	-58.5658	-186.294	-30.6801	9.04574	-200.809	-31.1809	39.0376	-193.207	6.73156	24.7491	
